<?xml version="1.0" encoding="UTF-8" standalone="no"?>
<svg width="100" height="100" viewBox="0 0 100 100" xmlns="http://www.w3.org/2000/svg">
  <defs>
    <filter id="magical-glow" x="-50%" y="-50%" width="200%" height="200%">
      <feGaussianBlur stdDeviation="3" result="blur"/>
      <feComposite in="SourceGraphic" operator="over" result="composite"/>
      <feFlood flood-color="#9932CC" flood-opacity="0.6" result="color"/>
      <feComposite in="color" in2="blur" operator="in" result="glow"/>
      <feComposite in="glow" in2="composite" operator="over"/>
    </filter>
    
    <linearGradient id="purple-gradient" x1="0%" y1="0%" x2="100%" y2="100%">
      <stop offset="0%" style="stop-color:#800080;stop-opacity:1" />
      <stop offset="50%" style="stop-color:#9400D3;stop-opacity:1" />
      <stop offset="100%" style="stop-color:#8A2BE2;stop-opacity:1" />
    </linearGradient>
    
    <radialGradient id="arcane-bg" cx="50%" cy="50%" r="60%" fx="40%" fy="40%">
      <stop offset="0%" style="stop-color:#2C0A37;stop-opacity:1" />
      <stop offset="90%" style="stop-color:#1E0522;stop-opacity:1" />
      <stop offset="100%" style="stop-color:#14021B;stop-opacity:1" />
    </radialGradient>
    
    <pattern id="arcane-pattern" width="20" height="20" patternUnits="userSpaceOnUse">
      <path d="M0,10 L20,10 M10,0 L10,20" stroke="#9932CC" stroke-width="0.3" opacity="0.2"/>
      <path d="M0,0 L20,20 M20,0 L0,20" stroke="#9932CC" stroke-width="0.2" opacity="0.1"/>
    </pattern>
  </defs>
  
  <!-- Main arcane frame -->
  <rect x="1" y="1" width="98" height="98" rx="5" ry="5" fill="url(#arcane-bg)" stroke="url(#purple-gradient)" stroke-width="4" filter="url(#magical-glow)"/>
  
  <!-- Pattern background -->
  <rect x="5" y="5" width="90" height="90" rx="3" ry="3" fill="url(#arcane-pattern)" stroke="none"/>
  
  <!-- Inner frame with magical symbols -->
  <rect x="8" y="8" width="84" height="84" rx="3" ry="3" fill="none" stroke="#9932CC" stroke-width="1" opacity="0.5"/>
  
  <!-- Decorative corner magical symbols -->
  <g opacity="0.8">
    <circle cx="10" cy="10" r="4" fill="#9932CC" opacity="0.7"/>
    <circle cx="90" cy="10" r="4" fill="#9932CC" opacity="0.7"/>
    <circle cx="10" cy="90" r="4" fill="#9932CC" opacity="0.7"/>
    <circle cx="90" cy="90" r="4" fill="#9932CC" opacity="0.7"/>
    
    <!-- Arcane symbols at corners -->
    <path d="M10,7 L10,13 M7,10 L13,10" stroke="#DDA0DD" stroke-width="0.7"/>
    <path d="M90,7 L90,13 M87,10 L93,10" stroke="#DDA0DD" stroke-width="0.7"/>
    <path d="M10,87 L10,93 M7,90 L13,90" stroke="#DDA0DD" stroke-width="0.7"/>
    <path d="M90,87 L90,93 M87,90 L93,90" stroke="#DDA0DD" stroke-width="0.7"/>
  </g>
  
  <!-- Subtle arcane lines -->
  <g opacity="0.3">
    <path d="M30,5 Q50,15 70,5" stroke="#DDA0DD" stroke-width="0.7" fill="none"/>
    <path d="M30,95 Q50,85 70,95" stroke="#DDA0DD" stroke-width="0.7" fill="none"/>
    <path d="M5,30 Q15,50 5,70" stroke="#DDA0DD" stroke-width="0.7" fill="none"/>
    <path d="M95,30 Q85,50 95,70" stroke="#DDA0DD" stroke-width="0.7" fill="none"/>
  </g>
  
  <!-- Pulsing magical effect (in CSS) -->
  <circle cx="50" cy="50" r="30" fill="url(#purple-gradient)" opacity="0.03" class="magical-pulse"/>
</svg>