<?xml version="1.0" encoding="UTF-8" standalone="no"?>
<svg width="100" height="100" viewBox="0 0 100 100" xmlns="http://www.w3.org/2000/svg">
  <defs>
    <filter id="shadow-effect" x="-20%" y="-20%" width="140%" height="140%">
      <feGaussianBlur stdDeviation="2" result="blur"/>
      <feFlood flood-color="rgba(0,0,0,0.5)" result="color"/>
      <feComposite in="color" in2="blur" operator="in" result="shadow"/>
      <feComposite in="shadow" in2="SourceGraphic" operator="over"/>
    </filter>
  </defs>
  
  <!-- Semi-transparent dark background -->
  <rect x="0" y="0" width="100" height="100" fill="#000" opacity="0.65"/>
  
  <!-- Large question mark -->
  <text x="50" y="65" font-family="serif" font-size="60" text-anchor="middle" fill="#888" filter="url(#shadow-effect)">?</text>
  
  <!-- Lock icon -->
  <g transform="translate(36, 25) scale(0.3)">
    <path d="M77.5,50h-55C11.9,50,3.5,58.4,3.5,68.9v54.4c0,10.5,8.5,18.9,18.9,18.9h55c10.5,0,18.9-8.5,18.9-18.9V68.9
      C96.4,58.4,87.9,50,77.5,50z M77.9,123.4c0,3.8-3.1,6.9-6.9,6.9H29c-3.8,0-6.9-3.1-6.9-6.9V69.3c0-3.8,3.1-6.9,6.9-6.9h42
      c3.8,0,6.9,3.1,6.9,6.9V123.4z" fill="#888" filter="url(#shadow-effect)"/>
    <path d="M50,42.1c-5.1,0-9.2-4.1-9.2-9.2V18.3c0-5.1,4.1-9.2,9.2-9.2s9.2,4.1,9.2,9.2v14.6C59.2,38,55.1,42.1,50,42.1z
      M75,32.9h-5c-1.9,0-3.5-1.6-3.5-3.5s1.6-3.5,3.5-3.5h5c1.9,0,3.5,1.6,3.5,3.5S76.9,32.9,75,32.9z M25,32.9h-5
      c-1.9,0-3.5-1.6-3.5-3.5s1.6-3.5,3.5-3.5h5c1.9,0,3.5,1.6,3.5,3.5S26.9,32.9,25,32.9z" fill="#888" filter="url(#shadow-effect)"/>
  </g>
</svg>