<?xml version="1.0" encoding="UTF-8" standalone="no"?>
<svg width="300" height="300" viewBox="0 0 300 300" fill="none" xmlns="http://www.w3.org/2000/svg">
  <g opacity="0.5">
    <!-- Metatron's Cube -->
    <circle cx="150" cy="150" r="100" stroke="#C1912E" stroke-width="1.5"/>
    <!-- Inner hexagon -->
    <path d="M150 50L225 87.5L225 162.5L150 200L75 162.5L75 87.5L150 50Z" stroke="#C1912E" stroke-width="1.5"/>
    <!-- Star tetrahedron -->
    <path d="M150 50L225 162.5L75 162.5L150 50Z" stroke="#C1912E" stroke-width="1.5"/>
    <path d="M150 200L225 87.5L75 87.5L150 200Z" stroke="#C1912E" stroke-width="1.5"/>
    <!-- Inner connections -->
    <line x1="75" y1="87.5" x2="225" y2="162.5" stroke="#C1912E" stroke-width="1"/>
    <line x1="75" y1="162.5" x2="225" y2="87.5" stroke="#C1912E" stroke-width="1"/>
    <line x1="150" y1="50" x2="150" y2="200" stroke="#C1912E" stroke-width="1"/>
    <!-- Points -->
    <circle cx="150" cy="50" r="4" fill="#C1912E" opacity="0.5"/>
    <circle cx="225" cy="87.5" r="4" fill="#C1912E" opacity="0.5"/>
    <circle cx="225" cy="162.5" r="4" fill="#C1912E" opacity="0.5"/>
    <circle cx="150" cy="200" r="4" fill="#C1912E" opacity="0.5"/>
    <circle cx="75" cy="162.5" r="4" fill="#C1912E" opacity="0.5"/>
    <circle cx="75" cy="87.5" r="4" fill="#C1912E" opacity="0.5"/>
    <circle cx="150" cy="150" r="4" fill="#C1912E" opacity="0.5"/>
  </g>
</svg>