<svg width="200" height="200" viewBox="0 0 200 200" fill="none" xmlns="http://www.w3.org/2000/svg">
  <circle cx="100" cy="100" r="100" fill="#3D1152"/>
  <circle cx="100" cy="70" r="40" fill="#A95EE2"/>
  <path d="M40 170C40 136.863 66.8629 110 100 110C133.137 110 160 136.863 160 170V200H40V170Z" fill="#A95EE2"/>
  <path d="M100 150C138.66 150 170 118.66 170 80C170 41.3401 138.66 10 100 10C61.3401 10 30 41.3401 30 80C30 118.66 61.3401 150 100 150Z" stroke="#E2BAFE" stroke-width="2" stroke-dasharray="4 4"/>
  <circle cx="80" cy="60" r="6" fill="white"/>
  <circle cx="120" cy="60" r="6" fill="white"/>
  <path d="M80 80C90 96 110 96 120 80" stroke="white" stroke-width="3" stroke-linecap="round"/>
</svg>